<mxfile host="app.diagrams.net" modified="2023-10-30T06:54:51.301Z" agent="Mozilla/5.0 (Windows NT 10.0; Win64; x64) AppleWebKit/537.36 (KHTML, like Gecko) Chrome/118.0.0.0 Safari/537.36" etag="zJXyNR_kcEJ1yafV9xvq" version="22.0.8" type="github">
  <diagram name="第 1 页" id="fPgfxLH1vUaf4vWl7ehr">
    <mxGraphModel dx="1034" dy="432" grid="1" gridSize="10" guides="1" tooltips="1" connect="1" arrows="1" fold="1" page="1" pageScale="1" pageWidth="827" pageHeight="1169" math="0" shadow="0">
      <root>
        <mxCell id="0" />
        <mxCell id="1" parent="0" />
        <mxCell id="tCNvh4tEcVVTbbnTu76i-1" value="百度门牌" style="rounded=1;whiteSpace=wrap;html=1;" vertex="1" parent="1">
          <mxGeometry x="90" y="725" width="120" height="60" as="geometry" />
        </mxCell>
        <mxCell id="tCNvh4tEcVVTbbnTu76i-2" value="" style="strokeWidth=2;html=1;shape=mxgraph.flowchart.annotation_2;align=left;labelPosition=right;pointerEvents=1;" vertex="1" parent="1">
          <mxGeometry x="220" y="250" width="30" height="1010" as="geometry" />
        </mxCell>
        <mxCell id="tCNvh4tEcVVTbbnTu76i-3" value="基础功能" style="rounded=1;whiteSpace=wrap;html=1;" vertex="1" parent="1">
          <mxGeometry x="260" y="390" width="120" height="60" as="geometry" />
        </mxCell>
        <mxCell id="tCNvh4tEcVVTbbnTu76i-4" value="" style="strokeWidth=2;html=1;shape=mxgraph.flowchart.annotation_2;align=left;labelPosition=right;pointerEvents=1;points=[[0,0.5,0,0,0],[0.5,0,0,0,0],[0.5,1,0,0,0],[1,0,0,0,0],[1,0.5,0,0,0],[1,1,0,0,0]];" vertex="1" parent="1">
          <mxGeometry x="388.5" y="350" width="50" height="140" as="geometry" />
        </mxCell>
        <mxCell id="tCNvh4tEcVVTbbnTu76i-5" value="声网信息配置" style="rounded=0;whiteSpace=wrap;html=1;" vertex="1" parent="1">
          <mxGeometry x="438.5" y="360" width="130" height="30" as="geometry" />
        </mxCell>
        <mxCell id="tCNvh4tEcVVTbbnTu76i-6" value="门牌信息配置" style="rounded=0;whiteSpace=wrap;html=1;" vertex="1" parent="1">
          <mxGeometry x="610" y="360" width="130" height="30" as="geometry" />
        </mxCell>
        <mxCell id="tCNvh4tEcVVTbbnTu76i-9" value="显示门禁背景配置" style="rounded=0;whiteSpace=wrap;html=1;" vertex="1" parent="1">
          <mxGeometry x="760" y="360" width="130" height="30" as="geometry" />
        </mxCell>
        <mxCell id="tCNvh4tEcVVTbbnTu76i-10" value="绑定设备" style="rounded=0;whiteSpace=wrap;html=1;" vertex="1" parent="1">
          <mxGeometry x="438.5" y="440" width="130" height="30" as="geometry" />
        </mxCell>
        <mxCell id="tCNvh4tEcVVTbbnTu76i-11" value="可视通话开门" style="rounded=1;whiteSpace=wrap;html=1;" vertex="1" parent="1">
          <mxGeometry x="260" y="590" width="120" height="60" as="geometry" />
        </mxCell>
        <mxCell id="tCNvh4tEcVVTbbnTu76i-12" value="设备" style="rounded=1;whiteSpace=wrap;html=1;" vertex="1" parent="1">
          <mxGeometry x="260" y="270" width="120" height="60" as="geometry" />
        </mxCell>
        <mxCell id="tCNvh4tEcVVTbbnTu76i-13" value="门牌" style="rounded=1;whiteSpace=wrap;html=1;" vertex="1" parent="1">
          <mxGeometry x="442.75" y="270" width="120" height="60" as="geometry" />
        </mxCell>
        <mxCell id="tCNvh4tEcVVTbbnTu76i-14" value="电视、音箱" style="rounded=1;whiteSpace=wrap;html=1;" vertex="1" parent="1">
          <mxGeometry x="630" y="270" width="120" height="60" as="geometry" />
        </mxCell>
        <mxCell id="tCNvh4tEcVVTbbnTu76i-16" style="edgeStyle=orthogonalEdgeStyle;rounded=0;orthogonalLoop=1;jettySize=auto;html=1;exitX=1;exitY=0.5;exitDx=0;exitDy=0;entryX=0;entryY=0.5;entryDx=0;entryDy=0;" edge="1" parent="1" source="tCNvh4tEcVVTbbnTu76i-17" target="tCNvh4tEcVVTbbnTu76i-19">
          <mxGeometry relative="1" as="geometry" />
        </mxCell>
        <mxCell id="tCNvh4tEcVVTbbnTu76i-17" value="按键点击门铃" style="rounded=1;whiteSpace=wrap;html=1;" vertex="1" parent="1">
          <mxGeometry x="442.75" y="592.5" width="110" height="60" as="geometry" />
        </mxCell>
        <mxCell id="tCNvh4tEcVVTbbnTu76i-18" style="edgeStyle=orthogonalEdgeStyle;rounded=0;orthogonalLoop=1;jettySize=auto;html=1;exitX=1;exitY=0.5;exitDx=0;exitDy=0;entryX=0;entryY=0.5;entryDx=0;entryDy=0;" edge="1" parent="1" source="tCNvh4tEcVVTbbnTu76i-19" target="tCNvh4tEcVVTbbnTu76i-21">
          <mxGeometry relative="1" as="geometry" />
        </mxCell>
        <mxCell id="tCNvh4tEcVVTbbnTu76i-19" value="门牌设备发起可视通话(进入通话页面)" style="rounded=1;whiteSpace=wrap;html=1;" vertex="1" parent="1">
          <mxGeometry x="602.75" y="592.5" width="120" height="60" as="geometry" />
        </mxCell>
        <mxCell id="tCNvh4tEcVVTbbnTu76i-20" style="edgeStyle=orthogonalEdgeStyle;rounded=0;orthogonalLoop=1;jettySize=auto;html=1;exitX=1;exitY=0.5;exitDx=0;exitDy=0;" edge="1" parent="1" source="tCNvh4tEcVVTbbnTu76i-21" target="tCNvh4tEcVVTbbnTu76i-23">
          <mxGeometry relative="1" as="geometry" />
        </mxCell>
        <mxCell id="tCNvh4tEcVVTbbnTu76i-21" value="后端处理相关逻辑" style="rounded=1;whiteSpace=wrap;html=1;" vertex="1" parent="1">
          <mxGeometry x="852.75" y="592.5" width="120" height="60" as="geometry" />
        </mxCell>
        <mxCell id="tCNvh4tEcVVTbbnTu76i-22" style="edgeStyle=orthogonalEdgeStyle;rounded=0;orthogonalLoop=1;jettySize=auto;html=1;exitX=1;exitY=0.5;exitDx=0;exitDy=0;entryX=0;entryY=0.5;entryDx=0;entryDy=0;" edge="1" parent="1" source="tCNvh4tEcVVTbbnTu76i-23">
          <mxGeometry relative="1" as="geometry">
            <mxPoint x="1334" y="623" as="targetPoint" />
          </mxGeometry>
        </mxCell>
        <mxCell id="tCNvh4tEcVVTbbnTu76i-23" value="被叫设备收到呼叫消息处理相关逻辑" style="rounded=1;whiteSpace=wrap;html=1;" vertex="1" parent="1">
          <mxGeometry x="1102.75" y="592.5" width="120" height="60" as="geometry" />
        </mxCell>
        <mxCell id="tCNvh4tEcVVTbbnTu76i-24" value="发起http请求将被叫号码传给后端，要求音箱、电视设备响应" style="text;html=1;strokeColor=none;fillColor=none;align=center;verticalAlign=middle;whiteSpace=wrap;rounded=0;" vertex="1" parent="1">
          <mxGeometry x="742.75" y="562.5" width="100" height="55" as="geometry" />
        </mxCell>
        <mxCell id="tCNvh4tEcVVTbbnTu76i-68" value="安全验证" style="rounded=0;whiteSpace=wrap;html=1;" vertex="1" parent="1">
          <mxGeometry x="610" y="440" width="130" height="30" as="geometry" />
        </mxCell>
        <mxCell id="tCNvh4tEcVVTbbnTu76i-69" value="远程升级" style="rounded=0;whiteSpace=wrap;html=1;" vertex="1" parent="1">
          <mxGeometry x="760" y="440" width="130" height="30" as="geometry" />
        </mxCell>
      </root>
    </mxGraphModel>
  </diagram>
</mxfile>
